<svg id="OBJECTS" xmlns="http://www.w3.org/2000/svg" viewBox="0 0 638.06 448.37"><defs><style>.cls-1{fill:#8b77e6;}.cls-2{fill:#d1d2fd;}.cls-10,.cls-11,.cls-12,.cls-13,.cls-14,.cls-15,.cls-16,.cls-17,.cls-18,.cls-19,.cls-2,.cls-20,.cls-21,.cls-22,.cls-23,.cls-24,.cls-25,.cls-4,.cls-5,.cls-8,.cls-9{fill-rule:evenodd;}.cls-3,.cls-4{fill:#bbbbf6;}.cls-5{fill:#f4f5f9;}.cls-23,.cls-6{fill:#645193;}.cls-7{fill:#e6e6f9;}.cls-8{fill:#7060a0;}.cls-9{fill:#dedffd;}.cls-10,.cls-27{fill:#443572;}.cls-11{fill:#31275b;}.cls-12{fill:#b1aec1;}.cls-13{fill:#e76d60;}.cls-14{fill:#fff;}.cls-15{fill:#fcb187;}.cls-16{fill:#f49677;}.cls-17{fill:#4f4d6e;}.cls-18{fill:#fcccb1;}.cls-19{fill:#ded8f9;}.cls-20{fill:#f1effd;}.cls-21{fill:#a8a8e5;}.cls-22{fill:#dbdbfd;}.cls-24{fill:#938aca;}.cls-25{fill:#ada5d8;}.cls-26{fill:#c9c0ed;}.cls-27{font-size:53.65px;font-family:Straczynski;}</style></defs><path class="cls-1" d="M627.76,174.54a.71.71,0,0,1,1.42,0v3.19a.71.71,0,1,1-1.42,0Zm-4.83,2.59a.71.71,0,0,1,1-1l2.26,2.26a.72.72,0,0,1,0,1,.73.73,0,0,1-1,0Zm-1.59,5.26a.71.71,0,1,1,0-1.42h3.19a.71.71,0,0,1,0,1.42Zm2.59,4.83a.7.7,0,0,1-1,0,.69.69,0,0,1,0-1l2.25-2.26a.69.69,0,0,1,1,0,.72.72,0,0,1,0,1Zm5.25,1.59a.71.71,0,1,1-1.42,0v-3.19a.71.71,0,0,1,1.42,0Zm4.84-2.58a.71.71,0,0,1-1,1L630.76,185a.7.7,0,0,1,0-1,.68.68,0,0,1,1,0Zm1.59-5.26a.71.71,0,1,1,0,1.42h-3.2a.71.71,0,0,1,0-1.42Zm-2.6-4.84a.71.71,0,0,1,1,1l-2.26,2.26a.72.72,0,0,1-1,0,.7.7,0,0,1,0-1Z" transform="translate(-55.97 -0.17)"/><path class="cls-2" d="M169.38,55.22a79.38,79.38,0,0,0-79.15,79.16h0a79.38,79.38,0,0,0,79.15,79.14h0a15.93,15.93,0,0,1,15.88,15.89h0a15.92,15.92,0,0,1-15.88,15.88H128a38.73,38.73,0,0,0-38.62,38.62h0A38.73,38.73,0,0,0,128,322.52a33.49,33.49,0,0,1,33.39,33.39h0a61.11,61.11,0,0,0,60.93,60.94H580a79.39,79.39,0,0,0,79.15-79.16h0A79.39,79.39,0,0,0,580,258.54H524.15a15.94,15.94,0,0,1-15.89-15.88h0a15.94,15.94,0,0,1,15.89-15.89h14.18a38.72,38.72,0,0,0,38.61-38.61h0a38.72,38.72,0,0,0-38.55-38.61H534.3a33.5,33.5,0,0,1-33.4-33.39h0A61.11,61.11,0,0,0,440,55.22Z" transform="translate(-55.97 -0.17)"/><path class="cls-2" d="M628.47,227.78a38.26,38.26,0,1,0-38.25-38.26,38.25,38.25,0,0,0,38.25,38.26Z" transform="translate(-55.97 -0.17)"/><rect class="cls-3" x="128.15" y="98.19" width="37.06" height="11.23"/><rect class="cls-3" x="73.11" y="111.68" width="37.07" height="11.23"/><rect class="cls-3" x="111.94" y="111.68" width="37.06" height="11.23"/><rect class="cls-3" x="89.32" y="125.15" width="37.06" height="11.23"/><rect class="cls-3" x="73.11" y="138.63" width="37.07" height="11.23"/><rect class="cls-3" x="111.94" y="138.63" width="37.06" height="11.23"/><rect class="cls-3" x="152.19" y="344.69" width="37.07" height="11.22"/><rect class="cls-3" x="191.02" y="344.69" width="37.07" height="11.22"/><rect class="cls-3" x="135.98" y="358.17" width="37.06" height="11.23"/><rect class="cls-3" x="174.81" y="358.17" width="37.06" height="11.23"/><rect class="cls-3" x="191.02" y="371.65" width="37.07" height="11.23"/><rect class="cls-3" x="135.98" y="385.12" width="37.06" height="11.23"/><rect class="cls-3" x="174.81" y="385.12" width="37.06" height="11.23"/><path class="cls-4" d="M271.13,89.32H434.29a7.59,7.59,0,0,1,7.56,7.57V329.6h5.8a5.1,5.1,0,0,1,5.08,5.09v20.78a5.09,5.09,0,0,1-5.08,5.07H257.76a5.08,5.08,0,0,1-5.07-5.07V334.69a5.1,5.1,0,0,1,5.07-5.09h5.81V96.89a7.59,7.59,0,0,1,7.56-7.57Z" transform="translate(-55.97 -0.17)"/><path class="cls-5" d="M267,87.57H430.13a7.58,7.58,0,0,1,7.56,7.56V331.45a7.58,7.58,0,0,1-7.56,7.56H267a7.58,7.58,0,0,1-7.57-7.56V95.13A7.58,7.58,0,0,1,267,87.57Z" transform="translate(-55.97 -0.17)"/><rect class="cls-6" x="217.27" y="218.89" width="150.63" height="98.61"/><rect class="cls-7" x="217.27" y="101.22" width="150.63" height="120.23"/><path class="cls-8" d="M288.09,116.24v37.84h53V116.24Zm0,52.69v37.84h53V168.93ZM356,206.77h53V168.93H356Zm53-52.69V116.24H356v37.84Z" transform="translate(-55.97 -0.17)"/><path class="cls-4" d="M403,144.76l-9.31,9.32H369l31.53-31.54H403Zm-23.25-22.22h10.68L358.9,154.08H356v-7.77Zm-38.63,77.92H322.64L341.12,182Zm-28.61,0H301.83l31.53-31.53h7.76v2.92Zm66.32-31.53L356,191.78V168.93Z" transform="translate(-55.97 -0.17)"/><path class="cls-9" d="M253.61,327.85H443.5a5.09,5.09,0,0,1,5.07,5.08v20.78a5.09,5.09,0,0,1-5.07,5.08H253.61a5.09,5.09,0,0,1-5.08-5.08V332.93a5.09,5.09,0,0,1,5.08-5.08Z" transform="translate(-55.97 -0.17)"/><path class="cls-10" d="M353.74,231.52l-2,.21-1.21,0-1.21-.06-1.94-.36-11.1-11.35-25.5,11.23c.78,40.09-3.41,58.89-8.33,86.53H380c.11-11.91,4.91-29.54,5.91-39.1l4.36-44.3-24.54-13.21Z" transform="translate(-55.97 -0.17)"/><path class="cls-11" d="M358.43,317.68h14a45.59,45.59,0,0,1,7.88-5.6c1.11-11.33,4.72-25.34,5.58-33.5l.12-1.26q-.47-4.57-1-9.9c-1.41-13.15,1.65-21.91,4.68-27.12l.59-6-24.54-13.21-3.86,3.39-1.33,6.33s13.26,10.24,14.87,15.84-4,44.13-8,60.76c-1,4.07-4.37,7.47-8.94,10.29Z" transform="translate(-55.97 -0.17)"/><path class="cls-11" d="M310.84,232.77c.4,24.62-1.1,41.15-3.49,56.84h0s13-48.69,11.58-50c-1.13-1-2.54-2.2-8.09-6.82Z" transform="translate(-55.97 -0.17)"/><path class="cls-12" d="M364.58,218.23a32.33,32.33,0,0,0-26.93-1.07l1.4,4.26,23.8.94Z" transform="translate(-55.97 -0.17)"/><path class="cls-11" d="M353.74,231.52l-2,.21-2.42-.1-1.94-.36L340,223.65l-1.17.31-2.61,3.17s5.13,13.3,5.44,13.75.89.71,1.79-.29,3.68-4.27,3.68-4.27.81-.78,1.14.16,4.41-1.44,4.41-1.44l.25.9s.63-.72,1.2.26,3.35,5.21,3.55,5.4,1.07.84,1.75-.42,7.92-16,9.2-18.55l-2.9-1.56Z" transform="translate(-55.97 -0.17)"/><path class="cls-11" d="M353.74,231.52l-2,.21-2.42-.1-1.94-.36-.74-.75-1.74,2.74s3.59,1.33,3.46,4.51l-7,79.91h3.87l7-79.75c.28-3.18,3.81-4.23,3.81-4.23l-1.52-2.87Z" transform="translate(-55.97 -0.17)"/><path class="cls-13" d="M351.87,198.59h0a10.26,10.26,0,0,1,9.81,10.62l-.53,13.52a10.26,10.26,0,0,1-10.62,9.81h0a10.27,10.27,0,0,1-9.82-10.62l.53-13.51a10.27,10.27,0,0,1,10.63-9.82Z" transform="translate(-55.97 -0.17)"/><path class="cls-11" d="M348.23,230.36l1.18-.14a1.17,1.17,0,0,1,.24.68c0,.42,0,1.66,0,1.66-.44.14-2.75.52-2.66.19,0-.08,1.25-2.39,1.25-2.39Z" transform="translate(-55.97 -0.17)"/><path class="cls-11" d="M353,230.55l-1.16-.24a1.19,1.19,0,0,0-.29.66c-.05.42-.13,1.66-.13,1.66.42.35,2.71.73,2.65.4,0-.07-1.07-2.48-1.07-2.48Z" transform="translate(-55.97 -0.17)"/><path class="cls-14" d="M364.58,218.23c.13.12,1.48,2.71,2.19,4a3.28,3.28,0,0,1,.07,2.69c-.56,1.68-7.68,15.27-7.68,15.27s-.5.72-1.22,0-6.11-9.82-6.11-9.82l11.31-11c.53-.63,1.32-1.18,1.44-1.06Z" transform="translate(-55.97 -0.17)"/><path class="cls-14" d="M337.65,217.16c-.1.05-1.69,2.6-2.49,3.79a3.28,3.28,0,0,0-.29,2.69c.44,1.71,6.46,15.83,6.46,15.83s.44.74,1.22.05,6.86-9.3,6.86-9.3L339,218.33c-.69-.88-1.27-1.21-1.35-1.17Z" transform="translate(-55.97 -0.17)"/><path class="cls-13" d="M331.66,185.84h-.47a6.24,6.24,0,1,0,5,2c-.11,1.85-.72,4-3.08,3.94l.58-3.55a2.13,2.13,0,0,0-2-2.39Z" transform="translate(-55.97 -0.17)"/><path class="cls-13" d="M376.19,192.3l.44.15h0a6.24,6.24,0,1,1-5.33.49c-.42,1.8-.47,4.1,1.83,4.66l.45-3.57a2.15,2.15,0,0,1,2.6-1.73Z" transform="translate(-55.97 -0.17)"/><path class="cls-15" d="M358.4,158.25h0a21.41,21.41,0,0,0-24.19,18.06l-2.79,19.21a21.42,21.42,0,0,0,18.06,24.2h0a21.41,21.41,0,0,0,24.19-18.06l2.79-19.21a21.42,21.42,0,0,0-18.06-24.2Z" transform="translate(-55.97 -0.17)"/><path class="cls-16" d="M346.5,219.06a20.78,20.78,0,0,0,3,.66h0a21.41,21.41,0,0,0,24.19-18.06l2.79-19.21a21.14,21.14,0,0,0-.95-10c-8.54-2.54-15.81-4.58-15.81-4.58s-26.91,0-24,7.41l.77,1.23a7.21,7.21,0,0,1,6.43-1.11c4.12,1,17.79,4.56,22.31,6.23s5.72,5,5,9.6-.21,6.36.92,7.11c0,0-1.74,20.73-24.63,20.73Z" transform="translate(-55.97 -0.17)"/><path class="cls-14" d="M346.27,203.54a5.52,5.52,0,1,0,10.86,2h0a1,1,0,0,0-.76-1.11l-9-1.67a1,1,0,0,0-1.11.76Z" transform="translate(-55.97 -0.17)"/><path class="cls-14" d="M347.5,208.15a5.52,5.52,0,0,0,6.21,1.55,3.41,3.41,0,0,0-2.73-2.58,3.5,3.5,0,0,0-3.48,1Z" transform="translate(-55.97 -0.17)"/><path class="cls-14" d="M356.48,204.48,348,202.92a1.94,1.94,0,0,0,.55,2.25c.71.38,6.84,1.36,7.36,1a3.29,3.29,0,0,0,.53-1.65Z" transform="translate(-55.97 -0.17)"/><path class="cls-13" d="M364.37,201.37a2.81,2.81,0,1,0,2.31,3.23,2.82,2.82,0,0,0-2.31-3.23Z" transform="translate(-55.97 -0.17)"/><path class="cls-13" d="M340.54,197.45a2.81,2.81,0,1,0,2.31,3.23,2.82,2.82,0,0,0-2.31-3.23Z" transform="translate(-55.97 -0.17)"/><path class="cls-11" d="M344.36,195a2,2,0,0,0-.38-1.47,2,2,0,0,0-3.53.91.76.76,0,0,1-.86.63.77.77,0,0,1-.65-.86,3.55,3.55,0,0,1,1.37-2.3,3.5,3.5,0,0,1,5.55,3.31.76.76,0,1,1-1.5-.22Zm21.76,3.16a1.93,1.93,0,0,0-.37-1.47,2,2,0,0,0-1.29-.77,2,2,0,0,0-1.47.37,2,2,0,0,0-.78,1.31.76.76,0,0,1-.86.64.77.77,0,0,1-.64-.87,3.49,3.49,0,1,1,6.91,1,.75.75,0,0,1-.85.64.76.76,0,0,1-.65-.86Zm1.66-6.81a5.57,5.57,0,0,0-5.15-.77.77.77,0,0,1-1-.41.77.77,0,0,1,.41-1,7.09,7.09,0,0,1,6.6.93.75.75,0,1,1-.86,1.24Zm-27-3.91a.78.78,0,0,1-1-.48.77.77,0,0,1,.49-1,7.09,7.09,0,0,1,6.59,1,.76.76,0,0,1-1,1.18,5.51,5.51,0,0,0-5.15-.72Z" transform="translate(-55.97 -0.17)"/><path class="cls-11" d="M331.94,192s3.34-.82,4.13-6.23.58-4.07,1-6.89,3.09-7.47,8.8-6.64l10.3,1.5,10.3,1.49c5.71.83,7,6.05,6.54,8.87s-.22,1.49-1,6.9,2.18,7.14,2.18,7.14c.63-4.29,2.18-5.78,2.18-5.78s.83-5.74,1.56-10.75.3-11.94-5.61-17.53a25.54,25.54,0,0,0-28.89-4.19c-7.25,3.66-9.64,10.2-10.37,15.21s-1.56,10.74-1.56,10.74,1.06,1.88.45,6.16Z" transform="translate(-55.97 -0.17)"/><path class="cls-10" d="M345.86,172.21A21.57,21.57,0,0,0,370,176.55s6.19-3.65,8.12-.86c0,0,4.31-11.29-5.4-14.21,0,0,2.24-1.12,2.11-2.57s-3.34-5.8-13.35-3.62c0,0,.34-3.6-2.87-4.64s-13.91,2.59-16.47,9.94c0,0-2.07,5.4,3.77,11.62Z" transform="translate(-55.97 -0.17)"/><path class="cls-17" d="M378.92,168.59a9.23,9.23,0,0,0-.34-1.56c-2.8,1.46-8.8,3.47-18.13,1-8.24-2.14-8.91-10.43-8.19-16.55a19.37,19.37,0,0,0-8.3,5.74c0,3,1.55,7.35,8.34,11.94,9.6,6.48,21.76,1.77,26.62-.61Z" transform="translate(-55.97 -0.17)"/><path class="cls-15" d="M254.6,143.2l0,1.64a2.87,2.87,0,0,1,1.4,1.61,17.64,17.64,0,0,1,.87,2.31l8.57-3.11,0-.67-.68-2a.62.62,0,0,1,0-.61l-4.35-1.92Z" transform="translate(-55.97 -0.17)"/><path class="cls-10" d="M334.7,220.63s-41-21.43-47.5-28.71-9.54-17.47-19.46-46.59c0,0-.36-1.36-2.47-1.22s-8,2.23-8.82,3.23a3.73,3.73,0,0,0-1,3.38c.29,1.37,12,46.73,15.3,53.51s33.33,34.69,39.58,41.2,24.34-24.8,24.34-24.8Z" transform="translate(-55.97 -0.17)"/><path class="cls-11" d="M263.55,144.42c-2.62.65-6.46,2.13-7.1,2.92a3.73,3.73,0,0,0-1,3.38c.29,1.37,12,46.73,15.3,53.51s33.33,34.69,39.58,41.2c1.95,2,5.05.37,8.41-2.87.28-1.71.35-2.79.16-3-1.45-1.33-3.36-2.88-13.91-11.67s-26.95-23.91-29.66-29.5-11.12-35.18-13.84-44c-2.62-8.54,1.69-9.86,2-10Z" transform="translate(-55.97 -0.17)"/><path class="cls-15" d="M267.08,133.43a12.68,12.68,0,0,1,3.09-6.21c.95-1-3.62-3.79-5.41,1,0,0-1.61,1.82-2.54,1.29s-2.39-14.65-2.55-16.18a1.62,1.62,0,0,0-2.43-1.22c-.47.43-.22,2.67-.08,5.51s.26,6.06,0,6.35-.89.28-1.57-1.25-4.13-10.12-4.9-10.54-2.17.36-2,1.8,3.94,10,4.08,11.22-1.1,1.2-1.66.52-6-9.35-6.69-9.77-2.11.42-1.59,1.88,5.38,10,5.34,10.7-1,1.27-2.55.15-4.6-3.8-5.19-3.83-1.35,1.78.06,3.21,4.77,5.11,5.2,5.72c2.27,3.2,3.44,6.74,5.56,9a7.57,7.57,0,0,0,2.88,1.85,10.82,10.82,0,0,0,8.52-.56c4.42-2.4,3.63-6.25,4.46-10.67Z" transform="translate(-55.97 -0.17)"/><path class="cls-15" d="M335.47,325.53l-2.72,2.32H310.13s.87-2.8,2.36-3.67a3.36,3.36,0,0,1,1.34-.29,4.64,4.64,0,0,1,1.75-1.35,79.4,79.4,0,0,1,9.09-2.2c2.77-.48,5.44.48,6.76.48a31.63,31.63,0,0,0,3.36-.28Z" transform="translate(-55.97 -0.17)"/><path class="cls-10" d="M390.23,234.28s4.17,2.93,6.16,11.81,7,54,8,61.8.65,20-16.62,20h-55V319.8a2.56,2.56,0,0,1,2.76-2.84c1.4,0,43.42-4.56,45.41-5.11s3-1.68,3-4.08-6.8-30.14-8.24-40.53,4.64-33.26,14.51-33Z" transform="translate(-55.97 -0.17)"/><path class="cls-11" d="M404.69,311.74c.16,7.42-2.31,16.11-16.93,16.11h-55v-6.32c1.35,1.68,4.05,3.61,9.35,3.61h43.34c6.63,0,19-4.8,19.25-13.4Z" transform="translate(-55.97 -0.17)"/><path class="cls-11" d="M375.72,267.24c1,7,4.43,22,6.54,31.67a82.69,82.69,0,0,1,1.7,8.86c-.07,2.2-.89,3.33-2.57,3.93,4.16-.69,5.57-2.64,6.28-5.27.62-2.24.07-11.67-1.68-29.11-.31-3.05-.65-6.36-1-9.9-1.41-13.15,1.65-21.91,4.68-27.12a28,28,0,0,1,2.65-3.82,10.33,10.33,0,0,0-2.06-2.2c-9.87-.3-15.94,22.57-14.51,33Z" transform="translate(-55.97 -0.17)"/><path class="cls-18" d="M348.72,200s1.88-2,2.48-2.49.72.08.65.86.13,2.29-.29,2.64-2.5,0-2.94-.18.1-.83.1-.83Z" transform="translate(-55.97 -0.17)"/><path class="cls-1" d="M210.52,244.24a.63.63,0,1,1,1.25,0v2.81a.63.63,0,0,1-1.25,0Zm-4.25,2.28a.62.62,0,1,1,.88-.88l2,2a.63.63,0,0,1-.88.89Zm-1.4,4.62a.63.63,0,0,1,0-1.25h2.8a.63.63,0,1,1,0,1.25Zm2.28,4.25a.61.61,0,0,1-.88,0,.6.6,0,0,1,0-.87l2-2a.63.63,0,0,1,.88,0,.61.61,0,0,1,0,.88Zm4.62,1.4a.63.63,0,1,1-1.25,0V254a.63.63,0,1,1,1.25,0Zm4.26-2.27a.62.62,0,0,1-.89.87l-2-2a.61.61,0,0,1,0-.88.63.63,0,0,1,.88,0Zm1.39-4.63a.63.63,0,1,1,0,1.25h-2.81a.63.63,0,0,1,0-1.25Zm-2.28-4.25a.63.63,0,1,1,.89.88l-2,2a.63.63,0,0,1-.88-.89Z" transform="translate(-55.97 -0.17)"/><path class="cls-19" d="M88.49,352.43H92a1.18,1.18,0,0,1,1.18,1.17v3.54A1.18,1.18,0,0,1,92,358.32H88.49a1.17,1.17,0,0,1-1.17-1.18V353.6a1.17,1.17,0,0,1,1.17-1.17Z" transform="translate(-55.97 -0.17)"/><path class="cls-19" d="M100.56,352.43h3.54a1.18,1.18,0,0,1,1.17,1.17v3.54a1.18,1.18,0,0,1-1.17,1.18h-3.54a1.18,1.18,0,0,1-1.18-1.18V353.6a1.18,1.18,0,0,1,1.18-1.17Z" transform="translate(-55.97 -0.17)"/><path class="cls-19" d="M112.62,352.43h3.54a1.18,1.18,0,0,1,1.18,1.17v3.54a1.18,1.18,0,0,1-1.18,1.18h-3.54a1.18,1.18,0,0,1-1.17-1.18V353.6a1.18,1.18,0,0,1,1.17-1.17Z" transform="translate(-55.97 -0.17)"/><path class="cls-19" d="M124.7,352.43h3.53a1.17,1.17,0,0,1,1.17,1.17v3.54a1.17,1.17,0,0,1-1.17,1.18H124.7a1.18,1.18,0,0,1-1.18-1.18V353.6a1.17,1.17,0,0,1,1.18-1.17Z" transform="translate(-55.97 -0.17)"/><path class="cls-1" d="M165.58,79.17a.62.62,0,1,1,1.24,0V82a.62.62,0,1,1-1.24,0Zm-4.26,2.29a.63.63,0,1,1,.89-.89l2,2a.63.63,0,1,1-.88.89Zm-1.39,4.62a.63.63,0,0,1-.63-.63.62.62,0,0,1,.63-.62h2.81a.62.62,0,0,1,.62.62.63.63,0,0,1-.62.63Zm2.28,4.25a.64.64,0,0,1-.89,0,.63.63,0,0,1,0-.88l2-2a.63.63,0,0,1,.88,0,.61.61,0,0,1,0,.88Zm4.61,1.4a.62.62,0,1,1-1.24,0V88.92a.62.62,0,1,1,1.24,0Zm4.26-2.28a.62.62,0,0,1-.88.88l-2-2a.61.61,0,0,1,0-.88.63.63,0,0,1,.88,0Zm1.4-4.62a.61.61,0,0,1,.62.62.63.63,0,0,1-.62.63h-2.8a.63.63,0,0,1-.63-.63.61.61,0,0,1,.63-.62Zm-2.28-4.26a.63.63,0,0,1,.88,0,.64.64,0,0,1,0,.89l-2,2a.63.63,0,1,1-.88-.89Z" transform="translate(-55.97 -0.17)"/><path class="cls-20" d="M194.67,199.87h3.54a1.19,1.19,0,0,1,1.18,1.18v3.53a1.19,1.19,0,0,1-1.18,1.18h-3.54a1.18,1.18,0,0,1-1.17-1.18v-3.53a1.18,1.18,0,0,1,1.17-1.18Z" transform="translate(-55.97 -0.17)"/><path class="cls-20" d="M206.75,199.87h3.53a1.17,1.17,0,0,1,1.17,1.18v3.53a1.17,1.17,0,0,1-1.17,1.18h-3.53a1.18,1.18,0,0,1-1.18-1.18v-3.53a1.18,1.18,0,0,1,1.18-1.18Z" transform="translate(-55.97 -0.17)"/><path class="cls-20" d="M218.81,199.87h3.54a1.19,1.19,0,0,1,1.18,1.18v3.53a1.19,1.19,0,0,1-1.18,1.18h-3.54a1.19,1.19,0,0,1-1.18-1.18v-3.53a1.19,1.19,0,0,1,1.18-1.18Z" transform="translate(-55.97 -0.17)"/><path class="cls-20" d="M230.88,199.87h3.53a1.18,1.18,0,0,1,1.18,1.18v3.53a1.18,1.18,0,0,1-1.18,1.18h-3.53a1.17,1.17,0,0,1-1.17-1.18v-3.53a1.17,1.17,0,0,1,1.17-1.18Z" transform="translate(-55.97 -0.17)"/><path class="cls-4" d="M536.37,149.55v77.22H524.15a15.94,15.94,0,0,0-15.89,15.89h0a15.94,15.94,0,0,0,15.89,15.88h12.22V416.85h-70V61.29a61.12,61.12,0,0,1,34.49,54.87h0a33.5,33.5,0,0,0,33.4,33.39Z" transform="translate(-55.97 -0.17)"/><path class="cls-9" d="M472.51,64.71V416.85H460.3V58.73a60.65,60.65,0,0,1,12.21,6Z" transform="translate(-55.97 -0.17)"/><path class="cls-9" d="M487.6,78.27V416.85H475.38V66.65A61.77,61.77,0,0,1,487.6,78.27Z" transform="translate(-55.97 -0.17)"/><path class="cls-9" d="M502.69,126.91V416.85H490.47V82.17a60.45,60.45,0,0,1,10.43,34h0a33.12,33.12,0,0,0,1.79,10.75Z" transform="translate(-55.97 -0.17)"/><path class="cls-9" d="M517.78,145.15v83a16,16,0,0,0-9.52,14.54h0a16,16,0,0,0,9.52,14.54V416.85H505.56V133.11a33.82,33.82,0,0,0,12.22,12Z" transform="translate(-55.97 -0.17)"/><path class="cls-9" d="M532.86,149.52v77.25h-8.71a15.67,15.67,0,0,0-3.51.4V146.61a33.15,33.15,0,0,0,12.22,2.91Zm0,109V416.85H520.64V258.15a15.67,15.67,0,0,0,3.51.39Z" transform="translate(-55.97 -0.17)"/><path class="cls-20" d="M369.12,388.58h3.54a1.17,1.17,0,0,1,1.17,1.17v3.53a1.17,1.17,0,0,1-1.17,1.18h-3.54a1.18,1.18,0,0,1-1.18-1.18v-3.53a1.17,1.17,0,0,1,1.18-1.17Z" transform="translate(-55.97 -0.17)"/><path class="cls-20" d="M381.19,388.58h3.53a1.17,1.17,0,0,1,1.18,1.17v3.53a1.18,1.18,0,0,1-1.18,1.18h-3.53a1.17,1.17,0,0,1-1.17-1.18v-3.53a1.17,1.17,0,0,1,1.17-1.17Z" transform="translate(-55.97 -0.17)"/><path class="cls-20" d="M393.26,388.58h3.53a1.17,1.17,0,0,1,1.18,1.17v3.53a1.18,1.18,0,0,1-1.18,1.18h-3.53a1.18,1.18,0,0,1-1.18-1.18v-3.53a1.17,1.17,0,0,1,1.18-1.17Z" transform="translate(-55.97 -0.17)"/><path class="cls-20" d="M405.33,388.58h3.53a1.17,1.17,0,0,1,1.18,1.17v3.53a1.18,1.18,0,0,1-1.18,1.18h-3.53a1.18,1.18,0,0,1-1.18-1.18v-3.53a1.17,1.17,0,0,1,1.18-1.17Z" transform="translate(-55.97 -0.17)"/><path class="cls-20" d="M389.37,68.16h3.53a1.18,1.18,0,0,1,1.18,1.18v3.53A1.17,1.17,0,0,1,392.9,74h-3.53a1.17,1.17,0,0,1-1.18-1.17V69.34a1.18,1.18,0,0,1,1.18-1.18Z" transform="translate(-55.97 -0.17)"/><path class="cls-20" d="M401.44,68.16H405a1.18,1.18,0,0,1,1.17,1.18v3.53A1.17,1.17,0,0,1,405,74h-3.53a1.17,1.17,0,0,1-1.18-1.17V69.34a1.18,1.18,0,0,1,1.18-1.18Z" transform="translate(-55.97 -0.17)"/><path class="cls-20" d="M413.51,68.16H417a1.18,1.18,0,0,1,1.19,1.18v3.53A1.18,1.18,0,0,1,417,74h-3.52a1.17,1.17,0,0,1-1.18-1.17V69.34a1.18,1.18,0,0,1,1.18-1.18Z" transform="translate(-55.97 -0.17)"/><path class="cls-20" d="M425.57,68.16h3.54a1.18,1.18,0,0,1,1.17,1.18v3.53A1.17,1.17,0,0,1,429.11,74h-3.54a1.18,1.18,0,0,1-1.18-1.17V69.34a1.19,1.19,0,0,1,1.18-1.18Z" transform="translate(-55.97 -0.17)"/><path class="cls-20" d="M558.8,285.89h3.53a1.17,1.17,0,0,1,1.17,1.17v3.53a1.18,1.18,0,0,1-1.17,1.18H558.8a1.18,1.18,0,0,1-1.18-1.18v-3.53a1.17,1.17,0,0,1,1.18-1.17Z" transform="translate(-55.97 -0.17)"/><path class="cls-20" d="M570.86,285.89h3.54a1.18,1.18,0,0,1,1.18,1.17v3.53a1.19,1.19,0,0,1-1.18,1.18h-3.54a1.18,1.18,0,0,1-1.17-1.18v-3.53a1.17,1.17,0,0,1,1.17-1.17Z" transform="translate(-55.97 -0.17)"/><path class="cls-20" d="M582.93,285.89h3.53a1.17,1.17,0,0,1,1.18,1.17v3.53a1.18,1.18,0,0,1-1.18,1.18h-3.53a1.18,1.18,0,0,1-1.18-1.18v-3.53a1.17,1.17,0,0,1,1.18-1.17Z" transform="translate(-55.97 -0.17)"/><path class="cls-20" d="M595,285.89h3.53a1.17,1.17,0,0,1,1.18,1.17v3.53a1.18,1.18,0,0,1-1.18,1.18H595a1.19,1.19,0,0,1-1.18-1.18v-3.53a1.18,1.18,0,0,1,1.18-1.17Z" transform="translate(-55.97 -0.17)"/><path class="cls-10" d="M147.25,407.69A117.26,117.26,0,0,1,150,383.06l.06-.21c.09-.38.38-1.1,1.14-.89,1,.27,9.31,4.93,17.06,12.83s7.63-4,.89-8.65-13.6-6.64-15.66-8.43a4.33,4.33,0,0,1-1.7-3.82h0c1.61-9.05,2.81-18.31,3.65-27.44h0s.39-2,2.27.35,9.24,10.46,14.95,11,.48-8.51-7.59-13-9-5.39-9-6.47h0c.52-7.19.82-14.22.93-20.92h0s.32-1.2,1.39-.33,9.08,10.05,13.36,9.08.12-8.8-6.7-11.54-8-3.56-8-4.57h0c-.07-19.83-1.82-35.8-4.46-42.6-2.74-7.07,14.67,8.93,30.76,35.06,1.38,2.38,1.29,3.74.4,6.63-1,3.09-2,10.06.5,8.44s2.87-7.75,3.08-7.86a.24.24,0,0,1,.31.05c2.63,4.67,5.17,9.59,7.52,14.7,2.42,5.74-.82,9.65-5.32,15.25-4.68,5.81-3.83,12,1.13,9.38s7.27-14.65,7.68-15,.66.15.7.24a140.84,140.84,0,0,1,7.49,26.25c.33,4.47-3.31,8.17-7.13,14.21s-.89,9.75,2.15,8.92,5.08-8.25,5.74-8.73.8-.07.83,0a84.77,84.77,0,0,1-2.82,25.9,171.76,171.76,0,0,1-6.45,19.28h-39.4Z" transform="translate(-55.97 -0.17)"/><path class="cls-11" d="M193,420.22c-5.17-69-22.89-128.74-23-129a1.56,1.56,0,1,0-3,.87c.09.3,17.72,59.71,22.89,128.18Z" transform="translate(-55.97 -0.17)"/><path class="cls-21" d="M225.54,325.35c29.89-17.7,38.14,19.13,32.08,35.82-4.49,12.35-20.41,39.4-31.62,59.05H184.31c5.41-41.28,19.24-81.84,41.23-94.87Z" transform="translate(-55.97 -0.17)"/><path class="cls-22" d="M202.46,420.22C217.67,372,241,332,241.08,331.81a1.7,1.7,0,0,1,1.92-.66,1,1,0,0,1,.68,1.5c-.12.21-23.2,39.78-38.34,87.57Z" transform="translate(-55.97 -0.17)"/><path class="cls-20" d="M97.49,304.24c9.22-34.83,41.69-15.76,55.64,14,7.87,16.8,21.51,61.14,36.85,102H151l-11.59-6.5c-26.95-50.4-45.62-95.57-41.94-109.48Z" transform="translate(-55.97 -0.17)"/><path class="cls-14" d="M160.5,411.85c-29.62-56.19-45.07-110.76-45.15-111a1.45,1.45,0,0,1,2.79-.81c.08.3,17.06,60.23,49.44,118.91Z" transform="translate(-55.97 -0.17)"/><rect class="cls-3" x="555.81" y="309.95" width="37.06" height="11.23"/><rect class="cls-3" x="539.6" y="323.43" width="37.07" height="11.23"/><path class="cls-4" d="M634.4,323.6h23.45a79.71,79.71,0,0,1,1.21,11.23H634.4Z" transform="translate(-55.97 -0.17)"/><rect class="cls-3" x="555.81" y="336.9" width="37.06" height="11.23"/><path class="cls-4" d="M650.61,337.07h8.49c0,.21,0,.42,0,.62h0a79.15,79.15,0,0,1-.71,10.62h-7.79Z" transform="translate(-55.97 -0.17)"/><path class="cls-4" d="M634.4,350.55h23.65a78,78,0,0,1-2.71,11.24H634.4Z" transform="translate(-55.97 -0.17)"/><path class="cls-1" d="M572.24,362.47a.63.63,0,0,1,1.26,0v2.81a.63.63,0,1,1-1.26,0ZM568,364.75a.61.61,0,0,1,0-.88.62.62,0,0,1,.89,0l2,2a.62.62,0,1,1-.88.88Zm-1.4,4.63a.63.63,0,0,1,0-1.26h2.81a.63.63,0,0,1,0,1.26Zm2.29,4.25a.63.63,0,1,1-.89-.89l2-2a.62.62,0,1,1,.88.88Zm4.62,1.4a.63.63,0,0,1-1.26,0v-2.81a.63.63,0,0,1,1.26,0Zm4.25-2.29a.62.62,0,0,1,0,.89.61.61,0,0,1-.88,0l-2-2a.62.62,0,1,1,.88-.88Zm1.4-4.62a.63.63,0,0,1,0,1.26h-2.81a.63.63,0,0,1,0-1.26Zm-2.28-4.25a.62.62,0,0,1,.88.88l-2,2a.62.62,0,1,1-.88-.88Z" transform="translate(-55.97 -0.17)"/><path class="cls-11" d="M639.1,305.28c8.62,28,11.84,43.19,16.47,55.77a78.56,78.56,0,0,0,3.54-23.36h0V297.54c0-73-30.64-26.75-20,7.74Z" transform="translate(-55.97 -0.17)"/><path class="cls-10" d="M532.26,411.76a108.23,108.23,0,0,1-17.68-35.31c-7.13-25.21,22.16,2.73,45.26,35.31Z" transform="translate(-55.97 -0.17)"/><path class="cls-10" d="M572.54,411.76c-7.22-12.2-14.38-28.25-15.5-45.14-2.37-35.54-3-46.71-9.83-52.47-5.8-4.93,64.22-3.88,93.58,74.05a79.82,79.82,0,0,1-33,23.56Z" transform="translate(-55.97 -0.17)"/><path class="cls-23" d="M557.25,312.92c26.51,24.11,47.36,59.76,62.64,93-.73.43-1.47.85-2.2,1.25C602,373,580.48,336.36,553,312.51c1.27.06,2.7.19,4.27.41Z" transform="translate(-55.97 -0.17)"/><path class="cls-4" d="M632.46,273.87c5.84,14.4,14.46,46.7,24.66,81.46a79.56,79.56,0,0,1-28.83,44.94C603.6,365,582.09,325,574.05,293.19c-16.16-63.93,34.14-79.16,58.41-19.32Z" transform="translate(-55.97 -0.17)"/><path class="cls-24" d="M642.52,386c-34.19-59.8-50.12-130-50.19-130.25a1.27,1.27,0,0,1,.95-1.53,1.29,1.29,0,0,1,1.54,1c.07.3,15.77,69.46,49.35,128.63-.54.74-1.09,1.48-1.65,2.2Z" transform="translate(-55.97 -0.17)"/><path class="cls-24" d="M609.49,411.09a85,85,0,0,0-6.24-18.39c-11.39-23.92-39.88-33.23-48-29.59-6.62,3-20,21.43-10,48.65H607.8c.57-.22,1.13-.43,1.69-.67Z" transform="translate(-55.97 -0.17)"/><path class="cls-25" d="M593,411.76c1.45-3.91,4.45-12.5,4.84-17.69a.71.71,0,0,0-.66-.78.73.73,0,0,0-.78.67c-.36,4.84-3.11,12.82-4.59,16.85a162.69,162.69,0,0,0-12.33-20.37,66.37,66.37,0,0,0,2.3-17.49.74.74,0,0,0-.76-.7.73.73,0,0,0-.7.75,63.29,63.29,0,0,1-1.95,15.9,164.69,164.69,0,0,0-20.29-23,1.45,1.45,0,1,0-2,2.12c3.9,3.66,7.47,7.38,10.76,11.13a43.9,43.9,0,0,0-11.94-.66A.72.72,0,1,0,555,380a44.57,44.57,0,0,1,13.34,1,158.78,158.78,0,0,1,13.13,17.71c-5.2-.5-18-1.34-30.38.93a.73.73,0,0,0,.27,1.44c13.24-2.44,27-1.26,31.1-.8,2.44,3.91,4.6,7.76,6.51,11.51Z" transform="translate(-55.97 -0.17)"/><path class="cls-19" d="M541.82,107h4a1.34,1.34,0,0,1,1.34,1.34v4a1.34,1.34,0,0,1-1.34,1.34h-4a1.34,1.34,0,0,1-1.34-1.34v-4a1.34,1.34,0,0,1,1.34-1.34Z" transform="translate(-55.97 -0.17)"/><path class="cls-19" d="M555.54,107h4a1.34,1.34,0,0,1,1.34,1.34v4a1.34,1.34,0,0,1-1.34,1.34h-4a1.34,1.34,0,0,1-1.34-1.34v-4a1.34,1.34,0,0,1,1.34-1.34Z" transform="translate(-55.97 -0.17)"/><path class="cls-19" d="M569.25,107h4a1.34,1.34,0,0,1,1.34,1.34v4a1.34,1.34,0,0,1-1.34,1.34h-4a1.34,1.34,0,0,1-1.33-1.34v-4a1.34,1.34,0,0,1,1.33-1.34Z" transform="translate(-55.97 -0.17)"/><path class="cls-19" d="M583,107h4a1.34,1.34,0,0,1,1.33,1.34v4a1.34,1.34,0,0,1-1.33,1.34h-4a1.34,1.34,0,0,1-1.34-1.34v-4A1.34,1.34,0,0,1,583,107Z" transform="translate(-55.97 -0.17)"/><path class="cls-26" d="M644.49,100.43a.72.72,0,0,1,1.43,0v3.2a.72.72,0,0,1-1.43,0Zm-4.83,2.6a.71.71,0,0,1,0-1,.7.7,0,0,1,1,0l2.26,2.26a.71.71,0,0,1-1,1Zm-1.59,5.24a.71.71,0,1,1,0-1.41h3.19a.71.71,0,0,1,0,1.41Zm2.59,4.85a.71.71,0,1,1-1-1l2.25-2.26a.71.71,0,1,1,1,1Zm5.26,1.59a.72.72,0,0,1-1.43,0v-3.2a.72.72,0,0,1,1.43,0Zm4.83-2.6a.73.73,0,0,1,0,1,.72.72,0,0,1-1,0l-2.26-2.26a.71.71,0,1,1,1-1Zm1.59-5.25a.71.71,0,1,1,0,1.41h-3.2a.71.71,0,0,1,0-1.41ZM649.75,102a.7.7,0,0,1,1,0,.73.73,0,0,1,0,1l-2.26,2.26a.71.71,0,0,1-1-1Z" transform="translate(-55.97 -0.17)"/><path class="cls-26" d="M92.52,226.58a.71.71,0,1,1,1.42,0v3.19a.71.71,0,0,1-1.42,0Zm-4.83,2.59a.7.7,0,0,1,0-1,.72.72,0,0,1,1,0l2.25,2.26a.69.69,0,0,1,0,1,.71.71,0,0,1-1,0Zm-1.59,5.25a.71.71,0,0,1,0-1.42h3.19a.71.71,0,0,1,0,1.42Zm2.59,4.84a.72.72,0,0,1-1,0,.7.7,0,0,1,0-1L90,236a.7.7,0,0,1,1,1Zm5.25,1.59a.71.71,0,0,1-1.42,0v-3.2a.71.71,0,1,1,1.42,0Zm4.84-2.6a.71.71,0,1,1-1,1L95.52,237a.71.71,0,0,1,1-1Zm1.59-5.25a.71.71,0,0,1,0,1.42H97.18a.71.71,0,1,1,0-1.42Zm-2.59-4.84a.71.71,0,0,1,1,1l-2.26,2.26a.71.71,0,1,1-1-1Z" transform="translate(-55.97 -0.17)"/><path class="cls-11" d="M64,412.48H686a8,8,0,0,1,8,8h0a8,8,0,0,1-8,8H659a4.46,4.46,0,0,0-4.45,4.46h0a4.47,4.47,0,0,0,4.45,4.45h9.89a5.58,5.58,0,0,1,5.57,5.57h0a5.57,5.57,0,0,1-5.57,5.55H82A5.57,5.57,0,0,1,76.45,443h0A5.58,5.58,0,0,1,82,437.42H89.8A4.47,4.47,0,0,0,94.26,433h0a4.47,4.47,0,0,0-4.46-4.46H64a8,8,0,0,1-8-8h0a8,8,0,0,1,8-8Zm4.17,36.06h0a5.35,5.35,0,0,1-5.34-5.34v-.44a5.36,5.36,0,0,1,5.34-5.34h0a5.35,5.35,0,0,1,5.35,5.34v.44a5.35,5.35,0,0,1-5.35,5.34Z" transform="translate(-55.97 -0.17)"/><text class="cls-27" transform="translate(183.97 44.2)">Welcome</text></svg>